<svg width="39" height="39" viewBox="0 0 39 39" xmlns="http://www.w3.org/2000/svg">
<path d="M32.9623 8.56677H15.56C15.0815 7.14579 13.7375 6.11914 12.1572 6.11914C10.5769 6.11914 9.23289 7.14579 8.75445 8.56677H6.03809C5.40708 8.56677 4.89551 9.07834 4.89551 9.70935C4.89551 10.3404 5.40708 10.8519 6.03809 10.8519H8.75453C9.23296 12.2729 10.577 13.2996 12.1573 13.2996C13.7375 13.2996 15.0816 12.2729 15.56 10.8519H32.9623C33.5933 10.8519 34.1049 10.3404 34.1049 9.70935C34.1049 9.07834 33.5933 8.56677 32.9623 8.56677ZM12.1572 11.0144C11.4376 11.0144 10.8521 10.4289 10.8521 9.70935C10.8521 8.98975 11.4376 8.4043 12.1572 8.4043C12.8768 8.4043 13.4623 8.98975 13.4623 9.70935C13.4623 10.4289 12.8768 11.0144 12.1572 11.0144Z"/>
<path d="M32.9623 18.3578H30.2458C29.7674 16.9368 28.4232 15.9102 26.8431 15.9102C25.2629 15.9102 23.9188 16.9368 23.4404 18.3578H6.03809C5.40708 18.3578 4.89551 18.8694 4.89551 19.5004C4.89551 20.1314 5.40708 20.6429 6.03809 20.6429H23.4404C23.9188 22.0639 25.263 23.0906 26.8431 23.0906C28.4233 23.0906 29.7675 22.0639 30.2459 20.6429H32.9623C33.5933 20.6429 34.1049 20.1314 34.1049 19.5004C34.1049 18.8694 33.5933 18.3578 32.9623 18.3578ZM26.8431 20.8054C26.1235 20.8054 25.5381 20.22 25.5381 19.5004C25.5381 18.7808 26.1235 18.1953 26.8431 18.1953C27.5627 18.1953 28.1482 18.7808 28.1482 19.5004C28.1482 20.22 27.5627 20.8054 26.8431 20.8054Z"/>
<path d="M32.9623 28.1478H20.4553C19.9769 26.7268 18.6328 25.7002 17.0525 25.7002C15.4723 25.7002 14.1282 26.7268 13.6498 28.1478H6.03809C5.40708 28.1478 4.89551 28.6594 4.89551 29.2904C4.89551 29.9214 5.40708 30.433 6.03809 30.433H13.6498C14.1282 31.854 15.4723 32.8806 17.0525 32.8806C18.6328 32.8806 19.9769 31.854 20.4553 30.433H32.9623C33.5933 30.433 34.1049 29.9214 34.1049 29.2904C34.1049 28.6594 33.5933 28.1478 32.9623 28.1478ZM17.0525 30.5955C16.3329 30.5955 15.7475 30.0101 15.7475 29.2905C15.7475 28.5709 16.3329 27.9854 17.0525 27.9854C17.7721 27.9854 18.3576 28.5708 18.3576 29.2904C18.3576 30.01 17.7721 30.5955 17.0525 30.5955Z"/>
</svg>
