<svg width="60" height="36" viewBox="0 0 60 36" fill="none" xmlns="http://www.w3.org/2000/svg">
<path fill-rule="evenodd" clip-rule="evenodd" d="M42.5823 25.7521C42.4861 26.5634 41.5752 27.3738 40.6393 27.411C39.5083 27.4559 38.2969 27.4125 37.157 27.4125C32.5158 27.4125 27.8745 27.4125 23.2333 27.4125C22.1104 27.4125 20.8574 27.4699 19.7506 27.4093C18.8359 27.3591 17.9402 26.5421 17.8467 25.7619L42.5823 25.7521ZM19.8918 10.6451C19.8918 9.98672 19.8091 9.35987 20.1631 8.95609C20.5247 8.54366 21.0829 8.63019 21.7079 8.63019H30.7036C31.1525 8.63019 32.0734 8.73111 32.3426 8.46049C32.7037 8.09737 32.5233 7.39479 31.956 7.35402C31.393 7.31354 30.6948 7.35252 30.1169 7.35252L21.1212 7.35242C20.1 7.35063 19.2648 7.76692 18.8762 8.83139C18.6138 9.55028 18.7233 11.7365 18.7233 12.6549V24.4545C18.0549 24.5803 16.8807 24.186 16.6326 24.8511C16.4135 25.4385 16.8377 26.5597 17.0593 26.9739C17.3576 27.5317 17.7933 27.964 18.3284 28.2795C19.0055 28.6788 19.5714 28.6902 20.4172 28.6902H40.0513C40.8996 28.6902 41.4594 28.6665 42.1258 28.2642C42.6637 27.9395 43.0836 27.5145 43.384 26.946C43.6107 26.5168 44.0276 25.3938 43.7844 24.8222C43.5258 24.2141 42.3626 24.5551 41.7037 24.4581L41.7042 19.8385C41.7054 19.5737 41.723 19.3858 41.5829 19.1912C41.3483 18.8656 40.5332 18.6517 40.5372 19.8378L40.5389 24.4627H39.6186L39.6194 20.094C39.6199 18.9737 38.4484 18.9705 38.4492 20.0942L38.4477 24.4592H21.9793V14.3225C21.9793 11.5589 21.6891 10.9147 23.507 10.9149H31.212C31.7303 10.9149 32.2143 11.0265 32.4513 10.5898C32.7084 10.1159 32.3508 9.65592 31.9156 9.63756C31.4974 9.61991 23.0418 9.60591 22.6836 9.65774C21.8472 9.77872 21.2009 10.417 20.9552 11.1477C20.7117 11.8717 20.8107 13.5001 20.8107 14.3653V24.4627H19.8918V10.6451Z" fill="white"/>
<path fill-rule="evenodd" clip-rule="evenodd" d="M41.1855 13.5641C41.4492 13.7577 41.7647 14.3707 42.2022 14.3684C42.7712 14.3653 42.8214 13.81 42.9529 13.2623C43.0779 12.7412 43.195 12.2607 43.3258 11.744C43.4482 11.2601 43.7009 10.5763 43.3617 10.233C43.0277 9.89503 42.4327 10.1717 42.004 10.3009C41.5406 10.4405 41.0793 10.5685 40.6168 10.7056C40.1324 10.8492 39.5992 10.9096 39.6093 11.5429C39.6167 12.0093 40.1728 12.3631 40.3552 12.652C40.0352 12.9869 36.3932 17.0707 36.1714 17.1951C36.1118 15.4441 36.167 13.0309 36.167 11.1582C36.167 10.6536 36.2764 9.64342 36.0134 9.32981C35.8485 9.13308 35.5737 9.05061 35.2931 9.20665C35.0862 9.32168 35.0026 9.51691 34.9998 9.87356C34.9915 10.9553 35.0469 15.2317 34.9922 15.8912C34.6494 15.5045 34.1331 14.8105 33.7285 14.8563C33.3093 14.9038 32.8253 15.6965 32.5125 15.9553C32.5125 15.3256 32.5125 14.6958 32.5125 14.066C32.5125 13.4585 32.6271 12.8075 32.1794 12.5809C31.9325 12.4559 31.6616 12.548 31.5217 12.6944C31.3396 12.885 31.3424 13.1125 31.3434 13.4239C31.3453 14.037 31.3438 14.6502 31.3438 15.2633C31.3438 17.5966 31.6207 16.9465 30.5434 18.1241L28.8677 19.9548C28.8042 19.3888 28.8557 18.4363 28.8557 17.8289C28.8557 17.2346 28.9857 16.2898 28.5979 16.0247C28.3504 15.8555 28.0696 15.901 27.8846 16.073C27.6508 16.2902 27.6889 16.5641 27.6896 16.9309C27.6909 17.6227 27.7047 18.3378 27.6865 19.0271C27.4197 18.8301 26.8624 17.7998 26.2842 18.3848L25.1613 19.6302C25.1528 19.6235 25.1427 19.6128 25.1376 19.6076L25.0716 19.5395C25.0209 19.4861 25.0644 19.5242 25.0116 19.475C24.7251 19.2083 24.03 19.1602 24.0318 20.1796C24.033 20.8456 24.1158 20.766 23.7842 21.1253C23.5915 21.3342 23.4314 21.5167 23.2392 21.7267C22.9733 22.0174 22.2098 22.5873 22.7742 23.1629C23.3498 23.7499 23.7812 22.7634 24.1087 22.6056C24.2497 23.0115 24.7863 23.0943 25.0642 22.7382C25.3484 22.3738 25.0971 21.6331 25.2299 21.3352C25.2693 21.2469 26.5476 19.8561 26.6751 19.7721C26.9172 19.9796 27.2314 20.3734 27.4732 20.6338C27.6892 20.8665 27.6941 20.7951 27.6902 21.2493C27.6877 21.5344 27.6898 21.8203 27.6889 22.1055C27.6873 22.6188 27.9143 23.1148 28.449 22.9346C28.9218 22.7753 28.8557 22.2133 28.8557 21.6619C29.2768 21.551 30.9273 19.3645 31.3396 19.1105C31.3648 19.833 31.3016 21.9696 31.351 22.3934C31.4013 22.8247 31.8156 23.1376 32.2258 22.8727C32.6029 22.6291 32.5125 22.1124 32.5125 21.5491C32.5125 20.4518 32.5165 19.3536 32.5124 18.2564C32.5108 17.8474 32.4583 17.8389 32.6641 17.6208C32.9197 17.35 33.6188 16.5193 33.7934 16.4172C34.038 16.6303 34.3275 16.989 34.5619 17.2453C35.0148 17.7404 35.001 17.5071 35.0009 18.4276C35.0009 19.5394 35.0011 20.6512 35.0009 21.7629C35.0009 22.3239 34.9756 22.8303 35.4504 22.9445C35.9918 23.0748 36.169 22.6147 36.1677 22.1061C36.165 20.9888 36.167 19.8712 36.167 18.7538C36.6166 18.7198 36.9781 18.0834 37.5353 17.5585C37.9351 17.1819 38.3645 16.6557 38.7495 16.2347C39.1697 15.7753 39.5591 15.3448 39.9794 14.8853C40.3842 14.4428 40.7746 13.9838 41.1855 13.5641Z" fill="white"/>
</svg>
