<svg width="29" height="28" viewBox="0 0 29 28" fill="none" xmlns="http://www.w3.org/2000/svg">
<g clip-path="url(#clip0_1_133)">
<path d="M14.271 16.3333H5.6085V4.66667H17.2752V10.2433C18.656 9.35165 20.3262 9.02345 21.9418 9.32633V7H19.6085V4.66667C19.6066 4.0484 19.3602 3.45598 18.923 3.01879C18.4859 2.58161 17.8934 2.33518 17.2752 2.33333H14.9418V0H12.6085V2.33333H10.2752V0H7.94183V2.33333H5.6085C4.99023 2.33518 4.39781 2.58161 3.96062 3.01879C3.52344 3.45598 3.27701 4.0484 3.27516 4.66667V7H0.94183V9.33333H3.27516V11.6667H0.94183V14H3.27516V16.3333C3.27701 16.9516 3.52344 17.544 3.96062 17.9812C4.39781 18.4184 4.99023 18.6648 5.6085 18.6667H7.94183V21H10.2752V18.6667H12.6085V21H14.9418V18.676C14.5719 17.9446 14.3442 17.1497 14.271 16.3333ZM16.6918 15.75C16.6918 14.9424 16.9313 14.1529 17.38 13.4814C17.8287 12.8099 18.4664 12.2865 19.2125 11.9775C19.9587 11.6684 20.7797 11.5876 21.5718 11.7451C22.3639 11.9027 23.0915 12.2916 23.6625 12.8626C24.2336 13.4337 24.6225 14.1613 24.78 14.9534C24.9376 15.7455 24.8567 16.5665 24.5477 17.3126C24.2386 18.0588 23.7152 18.6965 23.0437 19.1452C22.3722 19.5938 21.5828 19.8333 20.7752 19.8333C20.2389 19.8335 19.7078 19.728 19.2124 19.5228C18.7169 19.3177 18.2667 19.0169 17.8875 18.6377C17.5083 18.2585 17.2075 17.8083 17.0023 17.3128C16.7972 16.8173 16.6917 16.2863 16.6918 15.75ZM20.7752 22.1667C18.0498 22.1667 12.6085 23.5352 12.6085 26.25V28H28.9418V26.25C28.9418 23.534 23.5005 22.1667 20.7752 22.1667Z" fill="white"/>
</g>
<defs>
<clipPath id="clip0_1_133">
<rect width="28" height="28" fill="white" transform="translate(0.94183)"/>
</clipPath>
</defs>
</svg>
