<svg width="34" height="34" viewBox="0 0 34 34" fill="none" xmlns="http://www.w3.org/2000/svg">
<path fill-rule="evenodd" clip-rule="evenodd" d="M17 32.5833C25.6417 32.5833 32.5833 25.6416 32.5833 17C32.5833 8.35829 25.6417 1.41663 17 1.41663C8.35832 1.41663 1.41666 8.35829 1.41666 17C1.41666 25.6416 8.35832 32.5833 17 32.5833ZM17.2831 19.6916C17.8498 19.5499 22.5248 17.8499 22.5248 14.1666C22.5248 11.7583 20.9665 9.63326 18.6998 8.92493C15.7248 7.79159 12.4665 9.34993 11.4748 12.3249C11.3331 13.0333 11.6165 13.8833 12.3248 13.8833C13.0331 14.1666 13.8831 13.7416 14.1665 13.0333C14.7331 11.6166 16.4331 10.7666 17.8498 11.3333C18.9831 11.7583 19.6915 12.7499 19.6915 14.0249C19.6915 15.5833 17.2831 16.7166 16.4331 16.9999C15.7248 17.2833 15.2998 18.1333 15.5831 18.8416C15.7248 19.4083 16.2915 19.8333 16.8581 19.8333C16.9998 19.8333 17.1415 19.8333 17.2831 19.6916ZM29.75 17C29.75 9.91663 24.0833 4.24996 17 4.24996C9.91666 4.24996 4.24999 9.91663 4.24999 17C4.24999 24.0833 9.91666 29.75 17 29.75C24.0833 29.75 29.75 24.0833 29.75 17ZM17.7084 22.95C17.8501 22.95 17.9917 23.0916 17.9917 23.0916C18.1334 23.2333 18.2751 23.375 18.1334 23.5166C18.2751 23.6583 18.2751 23.9416 18.2751 24.0833C18.2751 24.5083 18.1334 24.7916 17.8501 25.075C17.5667 25.3583 17.2834 25.5 16.8584 25.5C16.4334 25.5 16.1501 25.3583 15.8667 25.075C15.5834 24.7916 15.4417 24.5083 15.4417 24.0833C15.4417 23.9173 15.4904 23.8 15.5306 23.7027C15.5591 23.634 15.5834 23.5753 15.5834 23.5166C15.5834 23.375 15.7251 23.2333 15.8667 23.0916C16.0084 22.95 16.1501 22.8083 16.2917 22.8083C16.5751 22.6666 16.8584 22.6666 17.1417 22.6666C17.2232 22.7481 17.2578 22.7827 17.2995 22.7974C17.3303 22.8083 17.3649 22.8083 17.4251 22.8083C17.4959 22.8083 17.5313 22.8437 17.5667 22.8791C17.6022 22.9145 17.6376 22.95 17.7084 22.95Z" fill="white"/>
<mask id="mask0" mask-type="alpha" maskUnits="userSpaceOnUse" x="1" y="1" width="32" height="32">
<path fill-rule="evenodd" clip-rule="evenodd" d="M17 32.5833C25.6417 32.5833 32.5833 25.6416 32.5833 17C32.5833 8.35829 25.6417 1.41663 17 1.41663C8.35832 1.41663 1.41666 8.35829 1.41666 17C1.41666 25.6416 8.35832 32.5833 17 32.5833ZM17.2831 19.6916C17.8498 19.5499 22.5248 17.8499 22.5248 14.1666C22.5248 11.7583 20.9665 9.63326 18.6998 8.92493C15.7248 7.79159 12.4665 9.34993 11.4748 12.3249C11.3331 13.0333 11.6165 13.8833 12.3248 13.8833C13.0331 14.1666 13.8831 13.7416 14.1665 13.0333C14.7331 11.6166 16.4331 10.7666 17.8498 11.3333C18.9831 11.7583 19.6915 12.7499 19.6915 14.0249C19.6915 15.5833 17.2831 16.7166 16.4331 16.9999C15.7248 17.2833 15.2998 18.1333 15.5831 18.8416C15.7248 19.4083 16.2915 19.8333 16.8581 19.8333C16.9998 19.8333 17.1415 19.8333 17.2831 19.6916ZM29.75 17C29.75 9.91663 24.0833 4.24996 17 4.24996C9.91666 4.24996 4.24999 9.91663 4.24999 17C4.24999 24.0833 9.91666 29.75 17 29.75C24.0833 29.75 29.75 24.0833 29.75 17ZM17.7084 22.95C17.8501 22.95 17.9917 23.0916 17.9917 23.0916C18.1334 23.2333 18.2751 23.375 18.1334 23.5166C18.2751 23.6583 18.2751 23.9416 18.2751 24.0833C18.2751 24.5083 18.1334 24.7916 17.8501 25.075C17.5667 25.3583 17.2834 25.5 16.8584 25.5C16.4334 25.5 16.1501 25.3583 15.8667 25.075C15.5834 24.7916 15.4417 24.5083 15.4417 24.0833C15.4417 23.9173 15.4904 23.8 15.5306 23.7027C15.5591 23.634 15.5834 23.5753 15.5834 23.5166C15.5834 23.375 15.7251 23.2333 15.8667 23.0916C16.0084 22.95 16.1501 22.8083 16.2917 22.8083C16.5751 22.6666 16.8584 22.6666 17.1417 22.6666C17.2232 22.7481 17.2578 22.7827 17.2995 22.7974C17.3303 22.8083 17.3649 22.8083 17.4251 22.8083C17.4959 22.8083 17.5313 22.8437 17.5667 22.8791C17.6022 22.9145 17.6376 22.95 17.7084 22.95Z" fill="white"/>
</mask>
<g mask="url(#mask0)">
<rect width="34" height="34" fill="white"/>
</g>
</svg>
