<svg width="36" height="36" viewBox="0 0 36 36" fill="none" xmlns="http://www.w3.org/2000/svg">
<g clip-path="url(#clip0_27_5144)">
<path d="M8.50781 0V8.94452C6.25605 9.92327 4.89319 12.3968 5.45815 14.9391L7.31025 23.2734H4.58353L2.47416 29.6016H0V36C1.2837 36 34.1124 36 36 36V0H8.50781ZM10.6172 10.6172C12.6506 10.6172 14.1574 12.5002 13.7171 14.4816L11.7634 23.2734H9.47102L7.51725 14.4816C7.07611 12.4963 8.58769 10.6172 10.6172 10.6172ZM6.10397 25.3828H15.1305L16.5367 29.6016H4.69772L6.10397 25.3828ZM19.0547 33.8906H2.10938V31.7109H19.0547V33.8906ZM33.8906 33.8906H21.1641V29.6016H18.7602L16.6508 23.2734H13.9242L15.7763 14.9392C16.5104 11.6351 13.9946 8.50781 10.6172 8.50781V2.10938H33.8906V33.8906Z" fill="#B3C3EE"/>
<path d="M30.3877 9.56897L31.5 8.08594L29.8125 6.82031L28.9227 8.00677C27.6609 7.00066 26.0636 6.39844 24.3281 6.39844C20.2572 6.39844 16.9453 9.71037 16.9453 13.7812C16.9453 17.8521 20.2572 21.1641 24.3281 21.1641C28.399 21.1641 31.7109 17.8521 31.7109 13.7812C31.7109 12.2167 31.2213 10.7644 30.3877 9.56897ZM24.3281 19.0547C21.4204 19.0547 19.0547 16.689 19.0547 13.7812C19.0547 10.8735 21.4204 8.50781 24.3281 8.50781C25.5894 8.50781 26.7482 8.95338 27.6567 9.69469L24.214 14.285L22.9645 13.0354L21.4729 14.527L24.4422 17.4962L29.0242 11.3868C29.3924 12.106 29.6016 12.9194 29.6016 13.7812C29.6016 16.689 27.2359 19.0547 24.3281 19.0547Z" fill="#B3C3EE"/>
</g>
<defs>
<clipPath id="clip0_27_5144">
<rect width="36" height="36" fill="white"/>
</clipPath>
</defs>
</svg>
