<svg width="34" height="34" viewBox="0 0 34 34" fill="#B3C3EE" xmlns="http://www.w3.org/2000/svg">
<path fill-rule="evenodd" clip-rule="evenodd" d="M16.4 18.3328L1.4 10.8242C0.8 10.5239 0.5 10.0734 0.5 9.4727C0.5 8.87201 0.8 8.4215 1.25 8.12116L16.25 0.612628C16.7 0.462457 17.15 0.462457 17.6 0.612628L32.6 8.12116C33.2 8.4215 33.5 8.87201 33.5 9.4727C33.5 10.0734 33.2 10.5239 32.6 10.8242L17.6 18.3328C17.45 18.4829 17.3 18.4829 17 18.4829C16.7 18.4829 16.55 18.4829 16.4 18.3328ZM28.7003 9.47262L17.0003 3.61597L5.30029 9.47262L17.0003 15.3293L28.7003 9.47262ZM33.3498 23.889C33.6498 24.6399 33.3498 25.5409 32.7498 25.8412L17.7498 33.3498C17.4498 33.4999 17.2998 33.4999 16.9998 33.4999C16.6998 33.4999 16.5498 33.4999 16.3998 33.3498L1.39981 25.8412C0.64981 25.5409 0.34981 24.6399 0.79981 23.889C1.09981 23.1382 1.99981 22.8378 2.74981 23.2883L17.1498 30.4965L31.5498 23.2883C31.9998 22.8378 32.8998 23.1382 33.3498 23.889ZM32.7498 18.3327C33.3498 18.0323 33.6498 17.1313 33.3498 16.3805C32.8998 15.6296 31.9998 15.3293 31.5498 15.7798L17.1498 22.988L2.74981 15.7798C1.99981 15.3293 1.09981 15.6296 0.79981 16.3805C0.34981 17.1313 0.64981 18.0323 1.39981 18.3327L16.3998 25.8412C16.5498 25.9914 16.6998 25.9914 16.9998 25.9914C17.2998 25.9914 17.4498 25.9914 17.7498 25.8412L32.7498 18.3327Z" />
</svg>
