<svg width="36" height="36" viewBox="0 0 36 36" fill="none" xmlns="http://www.w3.org/2000/svg">
<g clip-path="url(#clip0_27_5153)">
<path d="M35.3372 29.7474C33.5389 29.0276 31.6268 28.5436 29.6754 28.2922V23.3413C29.6754 22.2326 30.0712 21.1957 30.7904 20.4212C33.9308 17.0352 32.0628 11.4708 27.4922 10.7001C27.4534 7.32832 27.6387 7.09249 27.1832 6.63701C27.1742 6.62801 20.8436 0.297492 20.8543 0.308109C20.6569 0.111023 20.3849 0 20.1094 0H1.05469C0.472219 0 0 0.472219 0 1.05469V34.9453C0 35.5278 0.472219 36 1.05469 36H34.9453C35.5278 36 36 35.5278 36 34.9453V30.7266C36 30.2954 35.7376 29.9076 35.3372 29.7474V29.7474ZM25.4566 28.1114V26.1562H27.566V28.1114C26.8634 28.0817 26.1592 28.0817 25.4566 28.1114ZM29.2442 18.9863C27.2103 21.1768 27.6159 23.7211 27.566 24.0469H25.4566C25.4014 23.6923 25.8318 21.2404 23.7562 18.9619C21.5685 16.562 23.3222 12.6821 26.5569 12.7268C29.7578 12.7656 31.4387 16.6203 29.2442 18.9863ZM21.1641 3.60091L23.8913 6.32812H21.1641V3.60091ZM2.10938 2.10938H19.0547V7.38281C19.0547 7.96528 19.5269 8.4375 20.1094 8.4375H25.3828V10.7269C20.9412 11.598 19.1372 17.0257 22.197 20.3826C22.9388 21.1968 23.3472 22.2218 23.3472 23.2689V28.2922C21.3957 28.5436 19.4836 29.0276 17.6854 29.7474C17.2851 29.9076 17.0226 30.2953 17.0226 30.7266V33.8906H2.10938V2.10938ZM33.8906 33.8906H19.132V31.4541C23.8037 29.774 29.219 29.774 33.8906 31.4541V33.8906Z" fill="#B3C3EE"/>
<path d="M13.9609 23.5273L14.5236 22.9645C14.9355 22.5527 14.9355 21.8849 14.5236 21.473C14.1118 21.0611 13.4439 21.0612 13.032 21.473L12.4678 22.0373C8.98984 19.7359 4.29269 22.2334 4.29269 26.4375C4.29269 27.5089 4.61472 28.5062 5.16583 29.3392L4.57991 29.9251C4.16802 30.3369 4.16802 31.0047 4.57991 31.4166C4.99173 31.8285 5.65956 31.8285 6.07145 31.4166L6.65582 30.8322C10.1117 33.1284 14.8396 30.6669 14.8396 26.4375C14.8396 25.3624 14.5155 24.3619 13.9609 23.5273V23.5273ZM10.9246 23.5805L6.70912 27.796C5.43245 25.1221 8.24924 22.3032 10.9246 23.5805ZM8.19798 29.2901L12.4188 25.0694C13.7082 27.7472 10.8801 30.5817 8.19798 29.2901Z" fill="#B3C3EE"/>
<path d="M5.34717 10.6525H15.894C16.4765 10.6525 16.9487 10.1803 16.9487 9.59784C16.9487 9.01537 16.4765 8.54315 15.894 8.54315H5.34717C4.7647 8.54315 4.29248 9.01537 4.29248 9.59784C4.29248 10.1803 4.7647 10.6525 5.34717 10.6525V10.6525Z" fill="#B3C3EE"/>
<path d="M5.34717 15.082H17.9999C18.5824 15.082 19.0546 14.6098 19.0546 14.0273C19.0546 13.4449 18.5824 12.9727 17.9999 12.9727H5.34717C4.7647 12.9727 4.29248 13.4449 4.29248 14.0273C4.29248 14.6098 4.7647 15.082 5.34717 15.082V15.082Z" fill="#B3C3EE"/>
<path d="M5.34375 19.0547H17.9965C18.579 19.0547 19.0512 18.5825 19.0512 18C19.0512 17.4175 18.579 16.9453 17.9965 16.9453H5.34375C4.76128 16.9453 4.28906 17.4175 4.28906 18C4.28906 18.5825 4.76128 19.0547 5.34375 19.0547Z" fill="#B3C3EE"/>
</g>
<defs>
<clipPath id="clip0_27_5153">
<rect width="36" height="36" fill="white"/>
</clipPath>
</defs>
</svg>
