<svg width="36" height="36" viewBox="0 0 36 36" fill="none" xmlns="http://www.w3.org/2000/svg">
<g clip-path="url(#clip0_27_5135)">
<path d="M35.0712 11.3292C33.8376 10.0955 31.8302 10.0956 30.5962 11.3295C30.2166 11.7094 27.7933 14.1347 27.4231 14.5053V6.14714C27.4231 5.30198 27.094 4.50745 26.4963 3.90987L23.5133 0.926719C22.9157 0.329063 22.1211 0 21.276 0H3.16528C1.42062 0 0.0012207 1.4194 0.0012207 3.16406V32.8359C0.0012207 34.5806 1.42062 36 3.16528 36H24.259C26.0037 36 27.4231 34.5806 27.4231 32.8359V23.4584L35.0711 15.8039C36.3077 14.5674 36.308 12.5659 35.0712 11.3292ZM21.095 2.10938C21.2943 2.10938 21.6783 2.07485 22.0218 2.41826L25.0048 5.40141C25.3395 5.73616 25.3138 6.10298 25.3138 6.32812H21.095V2.10938ZM25.3137 32.8359C25.3137 33.4175 24.8407 33.8906 24.259 33.8906H3.16528C2.58373 33.8906 2.1106 33.4175 2.1106 32.8359V3.16406C2.1106 2.58251 2.58373 2.10938 3.16528 2.10938H18.9856V7.38281C18.9856 7.96528 19.4578 8.4375 20.0403 8.4375H25.3137V16.6165C25.3137 16.6165 22.2021 19.7307 22.202 19.7308L20.7111 21.2217C20.5954 21.3375 20.5081 21.4786 20.4563 21.634L18.9647 26.1086C18.8384 26.4876 18.937 26.9055 19.2195 27.1879C19.5024 27.4708 19.9204 27.569 20.2988 27.4428L24.7735 25.9512C24.9288 25.8995 25.07 25.8122 25.1857 25.6964L25.3137 25.5684V32.8359ZM22.9484 21.9675L24.4399 23.4591L23.8702 24.0288L21.6329 24.7745L22.3787 22.5372L22.9484 21.9675ZM25.9312 21.9672L24.4397 20.4756C25.2339 19.6808 28.7614 16.1502 29.5095 15.4015L31.0011 16.893L25.9312 21.9672ZM33.5793 14.3127L32.4921 15.4008L31.0005 13.9093L32.0881 12.8208C32.4996 12.4095 33.1685 12.4096 33.5797 12.8208C33.9908 13.2321 33.993 13.8989 33.5793 14.3127Z" fill="#B3C3EE"/>
<path d="M20.0405 10.5469H5.2749C4.69243 10.5469 4.22021 11.0191 4.22021 11.6016C4.22021 12.184 4.69243 12.6562 5.2749 12.6562H20.0405C20.623 12.6562 21.0952 12.184 21.0952 11.6016C21.0952 11.0191 20.623 10.5469 20.0405 10.5469Z" fill="#B3C3EE"/>
<path d="M15.8218 14.7656H5.2749C4.69243 14.7656 4.22021 15.2378 4.22021 15.8203C4.22021 16.4028 4.69243 16.875 5.2749 16.875H15.8218C16.4042 16.875 16.8765 16.4028 16.8765 15.8203C16.8765 15.2378 16.4042 14.7656 15.8218 14.7656Z" fill="#B3C3EE"/>
<path d="M15.8218 18.9844H5.2749C4.69243 18.9844 4.22021 19.4566 4.22021 20.0391C4.22021 20.6215 4.69243 21.0938 5.2749 21.0938H15.8218C16.4042 21.0938 16.8765 20.6215 16.8765 20.0391C16.8765 19.4566 16.4042 18.9844 15.8218 18.9844Z" fill="#B3C3EE"/>
<path d="M15.8218 23.2031H5.2749C4.69243 23.2031 4.22021 23.6753 4.22021 24.2578C4.22021 24.8403 4.69243 25.3125 5.2749 25.3125H15.8218C16.4042 25.3125 16.8765 24.8403 16.8765 24.2578C16.8765 23.6753 16.4042 23.2031 15.8218 23.2031Z" fill="#B3C3EE"/>
<path d="M20.0405 29.6719H13.7124C13.1299 29.6719 12.6577 30.1441 12.6577 30.7266C12.6577 31.309 13.1299 31.7812 13.7124 31.7812H20.0405C20.623 31.7812 21.0952 31.309 21.0952 30.7266C21.0952 30.1441 20.623 29.6719 20.0405 29.6719Z" fill="#B3C3EE"/>
</g>
<defs>
<clipPath id="clip0_27_5135">
<rect width="36" height="36" fill="white"/>
</clipPath>
</defs>
</svg>
