<svg width="36" height="36" viewBox="0 0 36 36" fill="none" xmlns="http://www.w3.org/2000/svg">
<g clip-path="url(#clip0_27_5126)">
<path d="M29.054 0H8.4375V10.7955C5.98233 11.2937 4.21875 13.452 4.21875 15.9609C4.21875 17.0565 4.72247 17.952 5.20959 18.8181C5.75951 19.7958 6.32812 20.8067 6.32812 22.2891C6.32812 24.0337 4.90873 25.4531 3.16406 25.4531H2.10938V29.6719H0V36H36V6.94596L29.054 0ZM29.6719 3.60091L32.3991 6.32812H29.6719V3.60091ZM4.21875 27.4565C6.6228 26.9665 8.4375 24.8356 8.4375 22.2891C8.4375 20.2542 7.66709 18.8845 7.04812 17.784C6.64587 17.0689 6.32812 16.504 6.32812 15.9609C6.32812 14.0098 8.10422 12.4343 10.1873 12.87C11.3369 13.1105 12.3183 14.0793 12.5737 15.226C12.8746 16.5767 12.5649 17.0122 12.0026 17.8027C11.3882 18.6664 10.5469 19.8491 10.5469 22.2891C10.5469 24.8357 12.3616 26.9665 14.7656 27.4565V29.6719H4.21875V27.4565ZM16.875 33.8906H2.10938V31.7812H16.875V33.8906ZM18.9844 33.8906V29.6719H16.875V25.4531H15.8203C14.0756 25.4531 12.6562 24.0337 12.6562 22.2891C12.6562 20.5229 13.1737 19.7955 13.7214 19.0254C14.3852 18.0921 15.1377 17.0344 14.6326 14.7673C14.1962 12.8083 12.5833 11.2161 10.6192 10.8053C10.595 10.8002 10.5709 10.7959 10.5468 10.7911V2.10938H27.5624V8.4375H33.8906V33.8906H18.9844Z" fill="#B3C3EE"/>
<path d="M18.9844 12.7969H31.7812V14.9062H18.9844V12.7969Z" fill="#B3C3EE"/>
<path d="M18.9844 17.0156H31.7812V19.125H18.9844V17.0156Z" fill="#B3C3EE"/>
<path d="M18.9844 21.2344H31.7812V23.3438H18.9844V21.2344Z" fill="#B3C3EE"/>
<path d="M18.9844 25.4531H31.7812V27.5625H18.9844V25.4531Z" fill="#B3C3EE"/>
</g>
<defs>
<clipPath id="clip0_27_5126">
<rect width="36" height="36" fill="white"/>
</clipPath>
</defs>
</svg>
