<svg width="40" height="40" viewBox="0 0 40 40" fill="none" xmlns="http://www.w3.org/2000/svg">
<g clip-path="url(#clip0_29_2402)">
<path fill-rule="evenodd" clip-rule="evenodd" d="M5.95657 33.2027C5.5015 32.0179 6.09736 31.6588 6.81861 31.1739C7.44789 30.7508 8.25382 30.4546 9.08105 30.239C10.7756 29.7971 12.6686 29.5456 14.4036 29.1579C15.5273 28.9069 15.5633 28.2971 15.5563 27.1045C15.5528 26.4884 15.3568 26.3972 15.0963 25.9652L13.9862 23.8747C13.2714 22.6814 11.3051 21.5367 11.1057 18.7326C11.012 17.417 11.537 17.107 11.5597 15.9118C11.6024 13.6509 11.3461 12.236 12.3636 10.3645C13.0517 9.09901 14.2334 7.82894 15.499 7.10064C17.9598 5.6846 20.2152 5.08132 23.081 6.02111C24.0175 6.32822 24.3435 6.64638 25.4595 6.84646C26.4048 7.01595 27.2141 7.29424 27.6602 7.83918C28.6967 9.10501 28.7102 9.94518 28.8401 11.4866C28.8799 11.9604 28.9963 12.3535 29.0692 12.8282C29.2117 13.7568 29.259 14.8794 29.2658 15.8357C29.2776 17.4888 29.7896 17.0356 29.7346 18.5807C29.6848 19.9775 29.1419 21.0224 28.3735 22.031C28.1035 22.3853 27.9038 22.5905 27.6367 22.893C26.9424 23.6798 26.8648 23.7588 26.3531 24.8074C26.1858 25.1501 26.016 25.5008 25.8067 25.8623C25.5948 26.2286 25.3195 26.4775 25.2973 26.9516C25.2449 28.0661 25.3197 28.9006 26.3232 29.1295C28.0813 29.5307 29.9017 29.7906 31.6498 30.2079C32.5012 30.4112 33.3075 30.7182 33.9437 31.1127C34.7 31.5816 35.2625 31.9344 34.9368 33.1265C35.2125 32.9876 35.2004 32.9486 35.3894 32.7021C36.4942 31.2603 36.9388 30.8002 37.87 28.9371C39.1434 26.3892 39.806 23.7357 39.9266 21.1121V19.3526C39.7448 15.3756 38.3332 11.5393 35.9332 8.32695C34.9086 6.95561 34.4727 6.60557 33.3189 5.53299C30.2241 2.65586 25.5202 0.677246 20.3505 0.677246C15.0888 0.677246 10.7173 2.70009 7.49529 5.57004C5.45116 7.39081 4.12522 9.15382 2.85621 11.6713C1.85066 13.6661 1.07296 16.4116 0.926636 19.3179V21.2623C0.968509 22.0727 1.06484 22.8855 1.22422 23.6882C1.81479 26.6639 2.75305 28.8698 4.33846 31.2381C4.64098 31.69 5.57242 32.9512 5.95692 33.2026L5.95657 33.2027Z" fill="#E6E7E8"/>
<path fill-rule="evenodd" clip-rule="evenodd" d="M5.76505 32.9914C5.88679 33.4812 8.08524 35.2482 8.47174 35.5377C11.7065 37.9607 15.4116 39.2634 19.1577 39.466H21.2182C25.0296 39.2626 28.8023 37.9251 32.0849 35.4725L33.5071 34.3048C33.7948 34.0514 34.6734 33.2293 34.7449 32.9152C35.0706 31.7231 34.5082 31.3704 33.7519 30.9014C33.1157 30.5069 32.3094 30.1999 31.4579 29.9967C29.7098 29.5794 27.8894 29.3194 26.1313 28.9182C25.1278 28.6892 25.0531 27.8547 25.1054 26.7404C25.1278 26.2662 25.4029 26.0173 25.6149 25.6511C25.8241 25.2895 25.9939 24.939 26.1612 24.5961C26.673 23.5474 26.7504 23.4685 27.4448 22.6817C27.7119 22.3791 27.9116 22.1741 28.1816 21.8197C28.95 20.8111 29.4929 19.7663 29.5427 18.3694C29.5977 16.8242 29.0857 17.2775 29.074 15.6245C29.0671 14.6682 29.0199 13.5455 28.8773 12.6169C28.8044 12.1422 28.6882 11.7491 28.6482 11.2753C28.5183 9.73379 28.5048 8.89374 27.4683 7.62791C27.0222 7.08297 26.213 6.80468 25.2676 6.63519C24.1515 6.43512 23.8256 6.11707 22.8891 5.80984C20.0234 4.87005 17.7679 5.47321 15.3072 6.88937C14.0416 7.61768 12.8598 8.88786 12.1717 10.1532C11.1542 12.0247 11.4105 13.4397 11.3678 15.7006C11.3452 16.8957 10.8203 17.2058 10.9138 18.5214C11.1133 21.3254 13.0795 22.4701 13.7943 23.6634L14.9044 25.754C15.165 26.1859 15.3609 26.2772 15.3644 26.8933C15.3714 28.0858 15.3354 28.6957 14.2118 28.9467C12.4768 29.3344 10.5837 29.5858 8.88917 30.0277C8.06195 30.2435 7.25601 30.5395 6.62674 30.9626C5.90549 31.4475 5.30962 31.8066 5.7647 32.9914H5.76505Z" fill="#3A4D66"/>
</g>
<defs>
<clipPath id="clip0_29_2402">
<rect width="39" height="39" fill="white" transform="translate(0.925781 0.677246)"/>
</clipPath>
</defs>
</svg>
